<?xml version="1.0" encoding="UTF-8" standalone="no"?>
<!DOCTYPE svg PUBLIC "-//W3C//DTD SVG 1.1//EN" "http://www.w3.org/Graphics/SVG/1.1/DTD/svg11.dtd">
<!-- Gegenereerd door Microsoft Visio, SVG Export constructie.svg Pagina-1 -->
<svg xmlns="http://www.w3.org/2000/svg" xmlns:xlink="http://www.w3.org/1999/xlink" xmlns:ev="http://www.w3.org/2001/xml-events"
		xmlns:v="http://schemas.microsoft.com/visio/2003/SVGExtensions/" width="3.76576in" height="3.35029in"
		viewBox="0 0 271.135 241.221" xml:space="preserve" color-interpolation-filters="sRGB" class="st14">
	<v:documentProperties v:langID="1043" v:metric="true" v:viewMarkup="false"/>

	<style type="text/css">
	<![CDATA[
		.st1 {stroke:#000000;stroke-linecap:round;stroke-linejoin:round;stroke-width:1.2}
		.st2 {stroke:#000000;stroke-linecap:round;stroke-linejoin:round;stroke-width:0.75}
		.st3 {stroke:#000000;stroke-linecap:round;stroke-linejoin:round;stroke-width:2}
		.st4 {marker-start:url(#mrkr5-106);stroke:#800000;stroke-linecap:round;stroke-linejoin:round;stroke-width:2}
		.st5 {fill:#800000;fill-opacity:1;stroke:#800000;stroke-opacity:1;stroke-width:0.44247787610619}
		.st6 {fill:none;stroke:none;stroke-linecap:round;stroke-linejoin:round;stroke-width:0.75}
		.st7 {fill:#000000;font-family:Times New Roman;font-size:1.00001em}
		.st8 {stroke:#000000;stroke-linecap:round;stroke-linejoin:round;stroke-width:0.25}
		.st9 {marker-end:url(#mrkr4-124);marker-start:url(#mrkr4-122);stroke:#000000;stroke-linecap:round;stroke-linejoin:round;stroke-width:0.25}
		.st10 {fill:#000000;fill-opacity:1;stroke:#000000;stroke-opacity:1;stroke-width:0.12195121951219}
		.st11 {marker-end:url(#mrkr5-191);stroke:#000000;stroke-linecap:round;stroke-linejoin:round;stroke-width:0.75}
		.st12 {fill:#000000;fill-opacity:1;stroke:#000000;stroke-opacity:1;stroke-width:0.22935779816514}
		.st13 {fill:#000000;font-family:Times New Roman;font-size:1.00001em;font-style:italic}
		.st14 {fill:none;fill-rule:evenodd;font-size:12px;overflow:visible;stroke-linecap:square;stroke-miterlimit:3}
	]]>
	</style>

	<defs id="Markers">
		<g id="lend5">
			<path d="M 2 1 L 0 0 L 1.98117 -0.993387 C 1.67173 -0.364515 1.67301 0.372641 1.98465 1.00043 " style="stroke:none"/>
		</g>
		<marker id="mrkr5-106" class="st5" v:arrowType="5" v:arrowSize="2" v:setback="3.775" refX="3.775" orient="auto"
				markerUnits="strokeWidth" overflow="visible">
			<use xlink:href="#lend5" transform="scale(2.26) "/>
		</marker>
		<g id="lend4">
			<path d="M 2 1 L 0 0 L 2 -1 L 2 1 " style="stroke:none"/>
		</g>
		<marker id="mrkr4-122" class="st10" v:arrowType="4" v:arrowSize="1" v:setback="14.96" refX="14.96" orient="auto"
				markerUnits="strokeWidth" overflow="visible">
			<use xlink:href="#lend4" transform="scale(8.2) "/>
		</marker>
		<marker id="mrkr4-124" class="st10" v:arrowType="4" v:arrowSize="1" v:setback="16.4" refX="-16.4" orient="auto"
				markerUnits="strokeWidth" overflow="visible">
			<use xlink:href="#lend4" transform="scale(-8.2,-8.2) "/>
		</marker>
		<marker id="mrkr5-191" class="st12" v:arrowType="5" v:arrowSize="2" v:setback="7.63" refX="-7.63" orient="auto"
				markerUnits="strokeWidth" overflow="visible">
			<use xlink:href="#lend5" transform="scale(-4.36,-4.36) "/>
		</marker>
	</defs>
	<g v:mID="0" v:index="1" v:groupContext="foregroundPage">
		<title>Pagina-1</title>
		<v:pageProperties v:drawingScale="0.0393701" v:pageScale="0.0393701" v:drawingUnits="24" v:shadowOffsetX="8.50394"
				v:shadowOffsetY="-8.50394"/>
		<g id="group1-1" transform="translate(32.6658,-202.657)" v:mID="1" v:groupContext="group">
			<title>Inklemming 3D.177</title>
			<g id="shape2-2" v:mID="2" v:groupContext="shape" transform="translate(264.039,212.874) rotate(90)">
				<title>Blad.2</title>
				<path d="M0 241.22 L28.35 241.22" class="st1"/>
			</g>
			<g id="shape3-5" v:mID="3" v:groupContext="shape" transform="translate(182.049,33.8013) rotate(44.9999)">
				<title>Blad.3</title>
				<path d="M0 241.22 L16.04 241.22" class="st2"/>
			</g>
			<g id="shape4-8" v:mID="4" v:groupContext="shape" transform="translate(182.049,36.6363) rotate(45)">
				<title>Blad.4</title>
				<path d="M0 241.22 L16.04 241.22" class="st2"/>
			</g>
			<g id="shape5-11" v:mID="5" v:groupContext="shape" transform="translate(182.049,39.4709) rotate(45)">
				<title>Blad.5</title>
				<path d="M0 241.22 L16.04 241.22" class="st2"/>
			</g>
			<g id="shape6-14" v:mID="6" v:groupContext="shape" transform="translate(182.049,42.3055) rotate(45)">
				<title>Blad.6</title>
				<path d="M0 241.22 L16.04 241.22" class="st2"/>
			</g>
			<g id="shape7-17" v:mID="7" v:groupContext="shape" transform="translate(182.049,45.1402) rotate(45)">
				<title>Blad.7</title>
				<path d="M0 241.22 L16.04 241.22" class="st2"/>
			</g>
			<g id="shape8-20" v:mID="8" v:groupContext="shape" transform="translate(191.498,57.4236) rotate(45)">
				<title>Blad.8</title>
				<path d="M0 241.22 L2.67 241.22" class="st2"/>
			</g>
			<g id="shape9-23" v:mID="9" v:groupContext="shape" transform="translate(189.608,58.3685) rotate(45)">
				<title>Blad.9</title>
				<path d="M0 241.22 L5.35 241.22" class="st2"/>
			</g>
			<g id="shape10-26" v:mID="10" v:groupContext="shape" transform="translate(187.718,59.3134) rotate(45)">
				<title>Blad.10</title>
				<path d="M0 241.22 L8.02 241.22" class="st2"/>
			</g>
			<g id="shape11-29" v:mID="11" v:groupContext="shape" transform="translate(184.983,59.4875) rotate(44.7325)">
				<title>Blad.11</title>
				<path d="M0 241.22 L10.71 241.22" class="st2"/>
			</g>
			<g id="shape12-32" v:mID="12" v:groupContext="shape" transform="translate(183.939,61.2032) rotate(45)">
				<title>Blad.12</title>
				<path d="M0 241.22 L13.36 241.22" class="st2"/>
			</g>
			<g id="shape13-35" v:mID="13" v:groupContext="shape" transform="translate(143.373,436.464) rotate(153.435)">
				<title>Blad.13</title>
				<path d="M0 241.22 L28.35 241.22" class="st1"/>
			</g>
			<g id="shape14-38" v:mID="14" v:groupContext="shape" transform="translate(262.647,295.722) rotate(108.435)">
				<title>Blad.14</title>
				<path d="M0 241.22 L2.67 241.22" class="st2"/>
			</g>
			<g id="shape15-41" v:mID="15" v:groupContext="shape" transform="translate(260.957,294.454) rotate(108.435)">
				<title>Blad.15</title>
				<path d="M0 241.22 L5.35 241.22" class="st2"/>
			</g>
			<g id="shape16-44" v:mID="16" v:groupContext="shape" transform="translate(259.267,293.187) rotate(108.435)">
				<title>Blad.16</title>
				<path d="M0 241.22 L8.02 241.22" class="st2"/>
			</g>
			<g id="shape17-47" v:mID="17" v:groupContext="shape" transform="translate(257.577,291.919) rotate(108.435)">
				<title>Blad.17</title>
				<path d="M0 241.22 L10.69 241.22" class="st2"/>
			</g>
			<g id="shape18-50" v:mID="18" v:groupContext="shape" transform="translate(255.886,290.651) rotate(108.435)">
				<title>Blad.18</title>
				<path d="M0 241.22 L13.36 241.22" class="st2"/>
			</g>
			<g id="shape19-53" v:mID="19" v:groupContext="shape" transform="translate(254.196,289.384) rotate(108.435)">
				<title>Blad.19</title>
				<path d="M0 241.22 L7.12 241.22" class="st2"/>
			</g>
			<g id="shape20-56" v:mID="20" v:groupContext="shape" transform="translate(248.28,300.793) rotate(108.435)">
				<title>Blad.20</title>
				<path d="M0 241.22 L5.35 241.22" class="st2"/>
			</g>
			<g id="shape21-59" v:mID="21" v:groupContext="shape" transform="translate(246.59,299.525) rotate(108.435)">
				<title>Blad.21</title>
				<path d="M0 241.22 L8.02 241.22" class="st2"/>
			</g>
			<g id="shape22-62" v:mID="22" v:groupContext="shape" transform="translate(244.9,298.257) rotate(108.435)">
				<title>Blad.22</title>
				<path d="M0 241.22 L10.69 241.22" class="st2"/>
			</g>
			<g id="shape23-65" v:mID="23" v:groupContext="shape" transform="translate(243.209,296.99) rotate(108.435)">
				<title>Blad.23</title>
				<path d="M0 241.22 L13.36 241.22" class="st2"/>
			</g>
			<g id="shape24-68" v:mID="24" v:groupContext="shape" transform="translate(241.519,295.722) rotate(108.435)">
				<title>Blad.24</title>
				<path d="M0 241.22 L13.36 241.22" class="st2"/>
			</g>
			<g id="shape25-71" v:mID="25" v:groupContext="shape" transform="translate(239.582,295.194) rotate(108.435)">
				<title>Blad.25</title>
				<path d="M0 241.22 L12.58 241.22" class="st2"/>
			</g>
			<g id="shape26-74" v:mID="26" v:groupContext="shape" transform="translate(237.047,296.462) rotate(108.435)">
				<title>Blad.26</title>
				<path d="M0 241.22 L9.91 241.22" class="st2"/>
			</g>
			<g id="shape27-77" v:mID="27" v:groupContext="shape" transform="translate(234.512,297.73) rotate(108.435)">
				<title>Blad.27</title>
				<path d="M0 241.22 L7.24 241.22" class="st2"/>
			</g>
			<g id="shape28-80" v:mID="28" v:groupContext="shape" transform="translate(231.976,298.997) rotate(108.435)">
				<title>Blad.28</title>
				<path d="M0 241.22 L4.57 241.22" class="st2"/>
			</g>
			<g id="shape29-83" v:mID="29" v:groupContext="shape" transform="translate(249.971,302.061) rotate(108.435)">
				<title>Blad.29</title>
				<path d="M0 241.22 L2.67 241.22" class="st2"/>
			</g>
			<g id="shape30-86" v:mID="30" v:groupContext="shape" transform="translate(229.441,300.265) rotate(108.435)">
				<title>Blad.30</title>
				<path d="M0 241.22 L1.89 241.22" class="st2"/>
			</g>
			<g id="shape31-89" v:mID="31" v:groupContext="shape" transform="translate(251.506,291.057) rotate(108.986)">
				<title>Blad.31</title>
				<path d="M0 241.22 L1.81 241.22" class="st2"/>
			</g>
		</g>
		<g id="shape32-92" v:mID="32" v:groupContext="shape" transform="translate(200.216,-168.586) rotate(36.8698)">
			<title>Ligger, 2 pt</title>
			<path d="M0 241.22 L113.39 241.22" class="st3"/>
		</g>
		<g id="shape33-95" v:mID="33" v:groupContext="shape" transform="translate(-63.0998,-72.6248) rotate(-26.5651)">
			<title>Ligger, 2 pt.33</title>
			<path d="M0 241.22 L113.39 241.22" class="st3"/>
		</g>
		<g id="shape34-98" v:mID="34" v:groupContext="shape" transform="translate(189.51,-49.8471) rotate(36.8699)">
			<title>Ligger, 2 pt.34</title>
			<path d="M0 241.22 L113.39 241.22" class="st3"/>
		</g>
		<g id="shape35-101" v:mID="35" v:groupContext="shape" transform="translate(-105.735,211.161) rotate(-90)">
			<title>Kracht</title>
			<path d="M7.55 241.22 L7.91 241.22 L42.52 241.22" class="st4"/>
		</g>
		<g id="shape36-107" v:mID="36" v:groupContext="shape" transform="translate(134.713,-52.4209)">
			<title>Blad.36</title>
			<desc>43.2 kN</desc>
			<v:textBlock v:margins="rect(4,4,4,4)" v:tabSpace="42.5197"/>
			<v:textRect cx="25.5118" cy="231.3" width="51.03" height="19.8425"/>
			<rect x="0" y="221.378" width="51.0236" height="19.8425" class="st6"/>
			<text x="6.18" y="234.9" class="st7" v:langID="1043"><v:paragraph v:horizAlign="1"/><v:tabList/>43.2 kN</text>		</g>
		<g id="shape95-110" v:mID="95" v:groupContext="shape" transform="translate(188.716,227.468) rotate(153.435)">
			<title>Blad.95</title>
			<path d="M0 241.22 L4.25 241.22" class="st8"/>
		</g>
		<g id="shape96-113" v:mID="96" v:groupContext="shape" transform="translate(299.494,32.6408) rotate(36.8698)">
			<title>Blad.96</title>
			<path d="M0 241.22 L4.25 241.22" class="st8"/>
		</g>
		<g id="shape97-116" v:mID="97" v:groupContext="shape" transform="translate(225.57,-181.263) rotate(36.8698)">
			<title>Blad.97</title>
			<path d="M3.74 241.22 L4.1 241.22 L109.29 241.22" class="st9"/>
		</g>
		<g id="shape98-125" v:mID="98" v:groupContext="shape" transform="translate(225.57,-181.263) rotate(36.8698)">
			<title>Blad.98</title>
			<desc>2 m</desc>
			<v:textBlock v:margins="rect(4,4,4,4)" v:tabSpace="42.5197"/>
			<v:textRect cx="56.6929" cy="234.134" width="113.39" height="14.1732"/>
			<rect x="0" y="227.048" width="113.386" height="14.1732" class="st6"/>
			<text x="47.53" y="237.73" class="st7" v:langID="1043"><v:paragraph v:horizAlign="1"/><v:tabList/>2 m</text>		</g>
		<g id="shape103-128" v:mID="103" v:groupContext="shape" transform="translate(316.279,-113.232) rotate(36.8698)">
			<title>Blad.103</title>
			<path d="M3.74 241.22 L4.1 241.22 L109.29 241.22" class="st9"/>
		</g>
		<g id="shape104-135" v:mID="104" v:groupContext="shape" transform="translate(192.519,225.566) rotate(153.435)">
			<title>Blad.104</title>
			<path d="M0 241.22 L4.25 241.22" class="st8"/>
		</g>
		<g id="shape105-138" v:mID="105" v:groupContext="shape" transform="translate(279.424,295.499) rotate(153.435)">
			<title>Blad.105</title>
			<path d="M0 241.22 L4.25 241.22" class="st8"/>
		</g>
		<g id="shape106-141" v:mID="106" v:groupContext="shape" transform="translate(283.227,293.598) rotate(153.435)">
			<title>Blad.106</title>
			<path d="M0 241.22 L4.25 241.22" class="st8"/>
		</g>
		<g id="shape107-144" v:mID="107" v:groupContext="shape" transform="translate(373.936,361.629) rotate(153.435)">
			<title>Blad.107</title>
			<path d="M0 241.22 L4.25 241.22" class="st8"/>
		</g>
		<g id="shape108-147" v:mID="108" v:groupContext="shape" transform="translate(370.133,363.531) rotate(153.435)">
			<title>Blad.108</title>
			<path d="M0 241.22 L4.25 241.22" class="st8"/>
		</g>
		<g id="shape110-150" v:mID="110" v:groupContext="shape" transform="translate(50.2861,12.4145) rotate(-26.5651)">
			<title>Blad.110</title>
			<path d="M3.74 241.22 L4.1 241.22 L109.29 241.22" class="st9"/>
		</g>
		<g id="shape111-157" v:mID="111" v:groupContext="shape" transform="translate(302.896,35.192) rotate(36.8698)">
			<title>Blad.111</title>
			<path d="M0 241.22 L4.25 241.22" class="st8"/>
		</g>
		<g id="shape112-160" v:mID="112" v:groupContext="shape" transform="translate(400.909,-18.0669) rotate(36.8698)">
			<title>Blad.112</title>
			<path d="M0 241.22 L4.25 241.22" class="st8"/>
		</g>
		<g id="shape113-163" v:mID="113" v:groupContext="shape" transform="translate(404.311,-15.5158) rotate(36.8698)">
			<title>Blad.113</title>
			<path d="M0 241.22 L4.25 241.22" class="st8"/>
		</g>
		<g id="shape115-166" v:mID="115" v:groupContext="shape" transform="translate(316.279,-113.232) rotate(36.8698)">
			<title>Blad.115</title>
			<desc>2 m</desc>
			<v:textBlock v:margins="rect(4,4,4,4)" v:tabSpace="42.5197"/>
			<v:textRect cx="56.6929" cy="234.134" width="113.39" height="14.1732"/>
			<rect x="0" y="227.048" width="113.386" height="14.1732" class="st6"/>
			<text x="47.53" y="237.73" class="st7" v:langID="1043"><v:paragraph v:horizAlign="1"/><v:tabList/>2 m</text>		</g>
		<g id="shape116-169" v:mID="116" v:groupContext="shape" transform="translate(56.6246,25.0915) rotate(-26.5651)">
			<title>Blad.116</title>
			<desc>2 m</desc>
			<v:textBlock v:margins="rect(4,4,4,4)" v:tabSpace="42.5197"/>
			<v:textRect cx="56.6929" cy="234.134" width="113.39" height="14.1732"/>
			<rect x="0" y="227.048" width="113.386" height="14.1732" class="st6"/>
			<text x="47.53" y="237.73" class="st7" v:langID="1043"><v:paragraph v:horizAlign="1"/><v:tabList/>2 m</text>		</g>
		<g id="shape117-172" v:mID="117" v:groupContext="shape" transform="translate(55.3429,-188.484)">
			<title>Blad.117</title>
			<desc>A</desc>
			<v:textBlock v:margins="rect(4,4,4,4)" v:tabSpace="42.5197"/>
			<v:textRect cx="7.08661" cy="234.134" width="14.18" height="14.1732"/>
			<rect x="0" y="227.048" width="14.1732" height="14.1732" class="st6"/>
			<text x="4" y="237.73" class="st7" v:langID="1043"><v:paragraph v:horizAlign="1"/><v:tabList/>A</text>		</g>
		<g id="shape118-175" v:mID="118" v:groupContext="shape" transform="translate(146.052,-141.712)">
			<title>Blad.118</title>
			<desc>B</desc>
			<v:textBlock v:margins="rect(4,4,4,4)" v:tabSpace="42.5197"/>
			<v:textRect cx="7.08661" cy="234.134" width="14.18" height="14.1732"/>
			<rect x="0" y="227.048" width="14.1732" height="14.1732" class="st6"/>
			<text x="4" y="237.73" class="st7" v:langID="1043"><v:paragraph v:horizAlign="1"/><v:tabList/>B</text>		</g>
		<g id="shape119-178" v:mID="119" v:groupContext="shape" transform="translate(29.8311,-92.1059)">
			<title>Blad.119</title>
			<desc>C</desc>
			<v:textBlock v:margins="rect(4,4,4,4)" v:tabSpace="42.5197"/>
			<v:textRect cx="7.08661" cy="234.134" width="14.18" height="14.1732"/>
			<rect x="0" y="227.048" width="14.1732" height="14.1732" class="st6"/>
			<text x="4" y="237.73" class="st7" v:langID="1043"><v:paragraph v:horizAlign="1"/><v:tabList/>C</text>		</g>
		<g id="shape120-181" v:mID="120" v:groupContext="shape" transform="translate(127.626,-15.5705)">
			<title>Blad.120</title>
			<desc>D</desc>
			<v:textBlock v:margins="rect(4,4,4,4)" v:tabSpace="42.5197"/>
			<v:textRect cx="7.08661" cy="234.134" width="14.18" height="14.1732"/>
			<rect x="0" y="227.048" width="14.1732" height="14.1732" class="st6"/>
			<text x="4" y="237.73" class="st7" v:langID="1043"><v:paragraph v:horizAlign="1"/><v:tabList/>D</text>		</g>
		<g id="group129-184" transform="translate(55.3429,-160.137)" v:mID="129" v:groupContext="group">
			<title>z-as</title>
			<g id="shape130-185" v:mID="130" v:groupContext="shape" transform="translate(241.221,212.874) rotate(90)">
				<title>Blad.130</title>
				<path d="M0 241.22 L22.62 241.22" class="st11"/>
			</g>
			<g id="shape131-192" v:mID="131" v:groupContext="shape">
				<title>Blad.131</title>
				<desc>z</desc>
				<v:textBlock v:margins="rect(4,4,4,4)" v:tabSpace="42.5197"/>
				<v:textRect cx="7.08661" cy="234.134" width="14.18" height="14.1732"/>
				<rect x="0" y="227.048" width="14.1732" height="14.1732" class="st6"/>
				<text x="4.75" y="237.73" class="st13" v:langID="1043"><v:paragraph v:horizAlign="1"/><v:tabList/>z</text>			</g>
		</g>
		<g id="shape134-195" v:mID="134" v:groupContext="shape" transform="translate(172.981,-109.114)">
			<title>Blad.134</title>
			<desc>x</desc>
			<v:textBlock v:margins="rect(4,4,4,4)" v:tabSpace="42.5197"/>
			<v:textRect cx="7.08661" cy="234.134" width="14.18" height="14.1732"/>
			<rect x="0" y="227.048" width="14.1732" height="14.1732" class="st6"/>
			<text x="4.42" y="237.73" class="st13" v:langID="1043"><v:paragraph v:horizAlign="1"/><v:tabList/>x</text>		</g>
		<g id="shape135-198" v:mID="135" v:groupContext="shape" transform="translate(313.602,-83.5472) rotate(36.8698)">
			<title>Blad.135</title>
			<path d="M0 241.22 L22.62 241.22" class="st11"/>
		</g>
		<g id="shape137-203" v:mID="137" v:groupContext="shape" transform="translate(140.543,251.554) rotate(153.435)">
			<title>Blad.137</title>
			<path d="M0 241.22 L22.62 241.22" class="st11"/>
		</g>
		<g id="shape252-208" v:mID="252" v:groupContext="shape" transform="translate(9.9886,-181.397)">
			<title>z-as.131</title>
			<desc>y</desc>
			<v:textBlock v:margins="rect(4,4,4,4)" v:tabSpace="42.5197"/>
			<v:textRect cx="7.08661" cy="234.134" width="14.18" height="14.1732"/>
			<rect x="0" y="227.048" width="14.1732" height="14.1732" class="st6"/>
			<text x="4.42" y="237.73" class="st13" v:langID="1043"><v:paragraph v:horizAlign="1"/><v:tabList/>y</text>		</g>
	</g>
</svg>
