<?xml version="1.0" encoding="UTF-8" standalone="no"?>
<!DOCTYPE svg PUBLIC "-//W3C//DTD SVG 1.1//EN" "http://www.w3.org/Graphics/SVG/1.1/DTD/svg11.dtd">
<!-- Gegenereerd door Microsoft Visio, SVG Export Mt_verloop.svg Pagina-1 -->
<svg xmlns="http://www.w3.org/2000/svg" xmlns:xlink="http://www.w3.org/1999/xlink" xmlns:ev="http://www.w3.org/2001/xml-events"
		xmlns:v="http://schemas.microsoft.com/visio/2003/SVGExtensions/" width="3.18086in" height="2.51156in"
		viewBox="0 0 229.022 180.833" xml:space="preserve" color-interpolation-filters="sRGB" class="st11">
	<v:documentProperties v:langID="1043" v:metric="true" v:viewMarkup="false"/>

	<style type="text/css">
	<![CDATA[
		.st1 {stroke:#000000;stroke-linecap:round;stroke-linejoin:round;stroke-width:0.75}
		.st2 {marker-end:url(#mrkr5-24);stroke:#800000;stroke-linecap:round;stroke-linejoin:round;stroke-width:0.75}
		.st3 {fill:#800000;fill-opacity:1;stroke:#800000;stroke-opacity:1;stroke-width:0.34246575342466}
		.st4 {marker-end:url(#mrkr5-32);stroke:#000000;stroke-linecap:round;stroke-linejoin:round;stroke-width:0.75}
		.st5 {fill:#000000;fill-opacity:1;stroke:#000000;stroke-opacity:1;stroke-width:0.22935779816514}
		.st6 {fill:none;stroke:none;stroke-linecap:round;stroke-linejoin:round;stroke-width:0.75}
		.st7 {fill:#000000;font-family:Times New Roman;font-size:1.00001em;font-style:italic}
		.st8 {fill:#000000;font-family:Times New Roman;font-size:1.00001em}
		.st9 {marker-start:url(#mrkr5-67);stroke:#800000;stroke-linecap:round;stroke-linejoin:round;stroke-width:0.75}
		.st10 {stroke:#000000;stroke-linecap:round;stroke-linejoin:round;stroke-width:2.25}
		.st11 {fill:none;fill-rule:evenodd;font-size:12px;overflow:visible;stroke-linecap:square;stroke-miterlimit:3}
	]]>
	</style>

	<defs id="Markers">
		<g id="lend5">
			<path d="M 2 1 L 0 0 L 1.98117 -0.993387 C 1.67173 -0.364515 1.67301 0.372641 1.98465 1.00043 " style="stroke:none"/>
		</g>
		<marker id="mrkr5-24" class="st3" v:arrowType="5" v:arrowSize="0" v:setback="5.11" refX="-5.11" orient="auto"
				markerUnits="strokeWidth" overflow="visible">
			<use xlink:href="#lend5" transform="scale(-2.92,-2.92) "/>
		</marker>
		<marker id="mrkr5-32" class="st5" v:arrowType="5" v:arrowSize="2" v:setback="7.63" refX="-7.63" orient="auto"
				markerUnits="strokeWidth" overflow="visible">
			<use xlink:href="#lend5" transform="scale(-4.36,-4.36) "/>
		</marker>
		<marker id="mrkr5-67" class="st3" v:arrowType="5" v:arrowSize="0" v:setback="4.63" refX="4.63" orient="auto"
				markerUnits="strokeWidth" overflow="visible">
			<use xlink:href="#lend5" transform="scale(2.92) "/>
		</marker>
	</defs>
	<g v:mID="0" v:index="1" v:groupContext="foregroundPage">
		<title>Pagina-1</title>
		<v:pageProperties v:drawingScale="0.0393701" v:pageScale="0.0393701" v:drawingUnits="24" v:shadowOffsetX="8.50394"
				v:shadowOffsetY="-8.50394"/>
		<g id="shape498-1" v:mID="498" v:groupContext="shape" transform="translate(380.383,29.4715) rotate(90)">
			<title>Blad.498</title>
			<path d="M0 180.83 L127.56 180.83" class="st1"/>
		</g>
		<g id="shape499-4" v:mID="499" v:groupContext="shape" transform="translate(210.304,29.4715) rotate(90)">
			<title>Blad.499</title>
			<path d="M0 10.75 L0 180.83 L127.56 180.83" class="st1"/>
		</g>
		<g id="shape500-7" v:mID="500" v:groupContext="shape" transform="translate(-79.0281,12.3644) rotate(-36.8699)">
			<title>Blad.500</title>
			<path d="M0 180.83 L70.87 180.83" class="st1"/>
		</g>
		<g id="shape501-10" v:mID="501" v:groupContext="shape" transform="translate(251.357,-30.1553) rotate(36.8699)">
			<title>Blad.501</title>
			<path d="M0 180.83 L70.87 180.83" class="st1"/>
		</g>
		<g id="shape502-13" v:mID="502" v:groupContext="shape" transform="translate(223.01,-51.4152) rotate(36.8699)">
			<title>Blad.502</title>
			<path d="M0 180.83 L35.43 180.83" class="st1"/>
		</g>
		<g id="shape503-16" v:mID="503" v:groupContext="shape" transform="translate(-22.3352,-30.1553) rotate(-36.8699)">
			<title>Blad.503</title>
			<path d="M0 180.83 L35.43 180.83" class="st1"/>
		</g>
		<g id="shape513-19" v:mID="513" v:groupContext="shape" transform="translate(284.995,-1.38361) rotate(36.8699)">
			<title>Spanning.513</title>
			<path d="M0 180.83 L18.84 180.83" class="st2"/>
		</g>
		<g id="group528-25" transform="translate(114.511,-37.9754)" v:mID="528" v:groupContext="group">
			<title>z-as.528</title>
			<g id="shape529-26" v:mID="529" v:groupContext="shape" transform="translate(180.833,152.486) rotate(90)">
				<title>Blad.529</title>
				<path d="M0 180.83 L22.62 180.83" class="st4"/>
			</g>
			<g id="shape530-33" v:mID="530" v:groupContext="shape">
				<title>Blad.530</title>
				<desc>z</desc>
				<v:textBlock v:margins="rect(4,4,4,4)" v:tabSpace="42.5197"/>
				<v:textRect cx="7.08661" cy="177.998" width="14.18" height="5.66929"/>
				<rect x="0" y="175.163" width="14.1732" height="5.66929" class="st6"/>
				<text x="4.75" y="181.6" class="st7" v:langID="1043"><v:paragraph v:horizAlign="1"/><v:tabList/>z</text>			</g>
		</g>
		<g id="shape531-36" v:mID="531" v:groupContext="shape" transform="translate(100.338,267.706) rotate(180)">
			<title>Blad.531</title>
			<path d="M0 180.83 L22.62 180.83" class="st4"/>
		</g>
		<g id="shape532-41" v:mID="532" v:groupContext="shape" transform="translate(71.9912,-79.6447)">
			<title>Blad.532</title>
			<desc>y</desc>
			<v:textBlock v:margins="rect(4,4,4,4)" v:tabSpace="42.5197"/>
			<v:textRect cx="7.08661" cy="173.746" width="14.18" height="14.1732"/>
			<rect x="0" y="166.659" width="14.1732" height="14.1732" class="st6"/>
			<text x="4.42" y="177.35" class="st7" v:langID="1043"><v:paragraph v:horizAlign="1"/><v:tabList/>y</text>		</g>
		<g id="shape550-44" v:mID="550" v:groupContext="shape" transform="translate(58.6819,-123.015)">
			<title>Blad.550</title>
			<desc>Constant verloop</desc>
			<v:textBlock v:margins="rect(4,4,4,4)" v:tabSpace="42.5197"/>
			<v:textRect cx="56.6929" cy="173.746" width="113.39" height="14.1732"/>
			<rect x="0" y="166.659" width="113.386" height="14.1732" class="st6"/>
			<text x="15.53" y="177.35" class="st8" v:langID="1043"><v:paragraph v:horizAlign="1"/><v:tabList/>Constant verloop</text>		</g>
		<g id="shape554-47" v:mID="554" v:groupContext="shape" transform="translate(244.485,-31.766) rotate(36.8699)">
			<title>Spanning.554</title>
			<path d="M0 180.83 L18.84 180.83" class="st2"/>
		</g>
		<g id="shape555-52" v:mID="555" v:groupContext="shape" transform="translate(224.23,-46.9571) rotate(36.8699)">
			<title>Spanning.555</title>
			<path d="M0 180.83 L18.84 180.83" class="st2"/>
		</g>
		<g id="shape556-57" v:mID="556" v:groupContext="shape" transform="translate(264.74,-16.5748) rotate(36.8699)">
			<title>Spanning.556</title>
			<path d="M0 180.83 L18.84 180.83" class="st2"/>
		</g>
		<g id="shape559-62" v:mID="559" v:groupContext="shape"
				transform="translate(-56.1379,-1.39625) rotate(-36.8699) scale(-1,1)">
			<title>Spanning.559</title>
			<path d="M3.47 180.83 L3.83 180.83 L22.68 180.83" class="st9"/>
		</g>
		<g id="shape560-68" v:mID="560" v:groupContext="shape"
				transform="translate(-15.6281,-31.7786) rotate(-36.8699) scale(-1,1)">
			<title>Spanning.560</title>
			<path d="M3.47 180.83 L3.83 180.83 L22.68 180.83" class="st9"/>
		</g>
		<g id="shape561-73" v:mID="561" v:groupContext="shape" transform="translate(4.62683,-46.9698) rotate(-36.8699) scale(-1,1)">
			<title>Spanning.561</title>
			<path d="M3.47 180.83 L3.83 180.83 L22.68 180.83" class="st9"/>
		</g>
		<g id="shape562-78" v:mID="562" v:groupContext="shape" transform="translate(-35.883,-16.5874) rotate(-36.8699) scale(-1,1)">
			<title>Spanning.562</title>
			<path d="M3.47 180.83 L3.83 180.83 L22.68 180.83" class="st9"/>
		</g>
		<g id="shape563-83" v:mID="563" v:groupContext="shape" transform="translate(21.5522,154.196) rotate(-90)">
			<title>Spanning.563</title>
			<path d="M0 180.83 L18.84 180.83" class="st2"/>
		</g>
		<g id="shape564-88" v:mID="564" v:groupContext="shape" transform="translate(21.5522,54.9832) rotate(-90)">
			<title>Spanning.564</title>
			<path d="M0 180.83 L18.84 180.83" class="st2"/>
		</g>
		<g id="shape565-93" v:mID="565" v:groupContext="shape" transform="translate(21.5522,79.7864) rotate(-90)">
			<title>Spanning.565</title>
			<path d="M0 180.83 L18.84 180.83" class="st2"/>
		</g>
		<g id="shape566-98" v:mID="566" v:groupContext="shape" transform="translate(21.5522,129.393) rotate(-90)">
			<title>Spanning.566</title>
			<path d="M0 180.83 L18.84 180.83" class="st2"/>
		</g>
		<g id="shape567-103" v:mID="567" v:groupContext="shape" transform="translate(21.5522,104.59) rotate(-90)">
			<title>Spanning.567</title>
			<path d="M0 180.83 L18.84 180.83" class="st2"/>
		</g>
		<g id="shape568-108" v:mID="568" v:groupContext="shape" transform="translate(207.47,32.3061) rotate(90)">
			<title>Spanning.568</title>
			<path d="M0 180.83 L18.84 180.83" class="st2"/>
		</g>
		<g id="shape569-113" v:mID="569" v:groupContext="shape" transform="translate(207.47,131.519) rotate(90)">
			<title>Spanning.569</title>
			<path d="M0 180.83 L18.84 180.83" class="st2"/>
		</g>
		<g id="shape570-118" v:mID="570" v:groupContext="shape" transform="translate(207.47,106.716) rotate(90)">
			<title>Spanning.570</title>
			<path d="M0 180.83 L18.84 180.83" class="st2"/>
		</g>
		<g id="shape571-123" v:mID="571" v:groupContext="shape" transform="translate(207.47,57.1092) rotate(90)">
			<title>Spanning.571</title>
			<path d="M0 180.83 L18.84 180.83" class="st2"/>
		</g>
		<g id="shape572-128" v:mID="572" v:groupContext="shape" transform="translate(207.47,81.9124) rotate(90)">
			<title>Spanning.572</title>
			<path d="M0 180.83 L18.84 180.83" class="st2"/>
		</g>
		<g id="shape573-133" v:mID="573" v:groupContext="shape" transform="translate(168.369,207.469) rotate(180)">
			<title>Spanning.573</title>
			<path d="M0 180.83 L18.84 180.83" class="st2"/>
		</g>
		<g id="shape574-138" v:mID="574" v:groupContext="shape" transform="translate(54.9833,207.469) rotate(180)">
			<title>Spanning.574</title>
			<path d="M0 180.83 L18.84 180.83" class="st2"/>
		</g>
		<g id="shape575-143" v:mID="575" v:groupContext="shape" transform="translate(83.3297,207.469) rotate(180)">
			<title>Spanning.575</title>
			<path d="M0 180.83 L18.84 180.83" class="st2"/>
		</g>
		<g id="shape576-148" v:mID="576" v:groupContext="shape" transform="translate(140.023,207.469) rotate(180)">
			<title>Spanning.576</title>
			<path d="M0 180.83 L18.84 180.83" class="st2"/>
		</g>
		<g id="shape577-153" v:mID="577" v:groupContext="shape" transform="translate(111.676,207.469) rotate(180)">
			<title>Spanning.577</title>
			<path d="M0 180.83 L18.84 180.83" class="st2"/>
		</g>
		<g id="shape578-158" v:mID="578" v:groupContext="shape" transform="translate(196.716,207.469) rotate(180)">
			<title>Spanning.578</title>
			<path d="M0 180.83 L18.84 180.83" class="st2"/>
		</g>
		<g id="shape581-163" v:mID="581" v:groupContext="shape" transform="translate(29.4715,-151.361)">
			<title>Blad.581</title>
			<path d="M0 180.83 L0 152.49 L170.08 152.49 L170.08 180.83" class="st10"/>
		</g>
		<g id="shape582-166" v:mID="582" v:groupContext="shape" transform="translate(380.383,29.4715) rotate(90)">
			<title>Blad.582</title>
			<path d="M0 180.83 L0 152.49 L127.56 152.49 L127.56 180.83" class="st10"/>
		</g>
		<g id="shape583-169" v:mID="583" v:groupContext="shape" transform="translate(-151.361,157.031) rotate(-90)">
			<title>Blad.583</title>
			<path d="M0 180.83 L0 152.49 L127.56 152.49 L127.56 180.83" class="st10"/>
		</g>
		<g id="shape584-172" v:mID="584" v:groupContext="shape" transform="translate(344.216,265.53) rotate(126.87)">
			<title>Blad.584</title>
			<path d="M0 180.83 L28.35 180.83" class="st1"/>
		</g>
		<g id="shape587-175" v:mID="587" v:groupContext="shape" transform="translate(97.503,-1.125)">
			<title>Blad.587</title>
			<path d="M17.01 94.38 L0 117.05 L85.04 180.83 L102.05 158.16" class="st10"/>
		</g>
		<g id="shape588-178" v:mID="588" v:groupContext="shape" transform="translate(-98.1868,288.207) rotate(-126.87)">
			<title>Blad.588</title>
			<path d="M0 180.83 L28.35 180.83" class="st1"/>
		</g>
		<g id="shape589-181" v:mID="589" v:groupContext="shape" transform="translate(29.4715,-1.125)">
			<title>Blad.589</title>
			<path d="M0 158.16 L17.01 180.83 L102.05 117.05 L85.04 94.38" class="st10"/>
		</g>
	</g>
</svg>
